<?xml version="1.0" standalone="no"?>
<!DOCTYPE svg PUBLIC "-//W3C//DTD SVG 20010904//EN"
 "http://www.w3.org/TR/2001/REC-SVG-20010904/DTD/svg10.dtd">
<svg version="1.0" xmlns="http://www.w3.org/2000/svg"
 width="661.000000pt" height="661.000000pt" viewBox="0 0 661.000000 661.000000"
 preserveAspectRatio="xMidYMid meet">
<metadata>
Created by potrace 1.11, written by Peter Selinger 2001-2013
</metadata>
<g transform="translate(0.000000,661.000000) scale(0.100000,-0.100000)"
fill="#000000" stroke="none">
<path d="M3310 6344 c-8 -1 -98 -14 -200 -29 -566 -80 -689 -106 -786 -166
-59 -36 -54 -107 9 -137 25 -12 27 -18 27 -75 l0 -62 -47 -31 c-120 -79 -211
-111 -339 -124 -106 -10 -158 -30 -186 -74 -18 -29 -19 -44 -14 -211 13 -408
89 -1016 152 -1216 43 -138 57 -154 196 -239 257 -154 418 -269 495 -353 40
-43 73 -96 73 -116 0 -5 -25 -27 -56 -47 -76 -50 -99 -90 -124 -209 -32 -157
-46 -196 -92 -252 -54 -65 -356 -417 -425 -496 -51 -58 -52 -60 -55 -130 -3
-64 -5 -72 -23 -75 -12 -2 -27 -12 -34 -24 -17 -27 -233 -297 -331 -413 -166
-196 -348 -412 -404 -479 -33 -39 -89 -105 -125 -147 -111 -127 -236 -282
-259 -321 l-23 -37 26 -60 c41 -97 164 -293 228 -364 l35 -37 2348 2 2348 3
53 65 c64 78 184 253 212 309 33 63 28 99 -25 176 -65 95 -295 406 -470 637
-82 108 -232 306 -334 441 -116 155 -192 247 -205 249 -17 3 -21 13 -25 80 -6
88 21 50 -211 293 -64 66 -151 158 -194 205 -44 47 -85 88 -91 92 -19 12 -32
56 -65 223 l-32 160 -46 48 c-25 26 -65 59 -88 73 -24 14 -43 26 -43 28 0 2
18 57 40 124 57 176 129 503 195 897 33 193 106 623 130 760 15 83 31 179 35
215 14 106 48 285 65 344 16 54 51 96 81 96 24 0 46 44 35 71 -19 49 -62 75
-181 107 -350 96 -760 197 -880 217 -82 13 -324 19 -370 9z m337 -35 c80 -11
691 -161 908 -223 97 -28 123 -39 142 -62 13 -16 23 -32 23 -35 0 -4 -18 -14
-40 -23 -24 -9 -48 -29 -59 -47 -23 -37 -54 -162 -76 -304 -23 -144 -117 -701
-189 -1115 -157 -900 -250 -1156 -451 -1229 -296 -109 -562 -128 -815 -59
-154 42 -249 99 -305 184 -107 160 -201 540 -270 1084 -9 69 -20 159 -25 200
-9 69 -24 225 -49 525 -6 66 -17 235 -26 375 -29 490 -23 438 -56 455 -44 23
-54 50 -28 76 11 11 37 27 56 36 81 33 340 86 558 112 50 6 149 20 220 31 72
11 144 21 160 23 66 9 248 6 322 -4z m-1277 -511 c0 -18 5 -93 10 -167 6 -74
9 -135 7 -137 -2 -2 -30 6 -63 17 -49 18 -74 20 -149 16 -88 -5 -218 -38 -230
-57 -14 -22 7 -28 47 -14 22 7 43 14 47 14 3 0 7 -53 9 -118 5 -229 49 -764
82 -992 12 -85 54 -166 106 -205 22 -16 86 -46 142 -64 l102 -35 28 21 29 21
12 -56 c7 -31 28 -126 48 -210 19 -85 33 -155 31 -157 -2 -2 -46 30 -98 71
-102 81 -220 161 -397 267 -128 77 -140 92 -177 221 -64 219 -137 794 -153
1198 -5 146 -4 170 11 192 26 41 71 57 180 67 114 10 187 35 288 98 78 49 88
50 88 9z m-50 -321 l65 -22 7 -65 c4 -36 14 -155 23 -265 20 -253 67 -672 95
-851 16 -95 13 -130 -13 -160 l-23 -26 -44 19 c-25 11 -67 26 -95 34 -65 17
-133 84 -157 154 -10 28 -22 100 -28 160 -6 61 -12 121 -15 135 -15 78 -48
562 -49 714 l-1 180 25 7 c51 14 145 8 210 -14z m1881 -2039 c105 -75 127
-143 74 -224 -35 -53 -174 -132 -296 -167 -180 -53 -262 -62 -549 -62 -250 0
-286 2 -390 24 -275 56 -450 148 -481 251 -10 33 -9 44 11 84 21 45 98 116
125 116 7 0 27 -24 43 -53 49 -86 79 -115 166 -157 183 -88 331 -116 556 -107
150 6 296 38 449 97 99 39 143 75 195 164 21 36 42 66 46 66 4 0 27 -14 51
-32z m149 -309 c11 -52 28 -136 39 -187 19 -87 19 -96 5 -133 -51 -125 -294
-236 -624 -283 -146 -21 -285 -30 -301 -20 -8 5 -61 7 -119 5 -397 -11 -844
144 -890 308 -8 30 -3 65 31 211 23 96 43 176 44 178 2 2 25 -18 51 -45 27
-26 72 -60 99 -75 82 -43 257 -97 393 -120 171 -28 503 -31 667 -5 277 45 485
130 553 226 15 21 28 38 30 36 2 -1 12 -45 22 -96z m-1921 -222 c-18 -87 -7
-121 61 -189 43 -42 83 -70 142 -98 91 -42 230 -90 265 -90 12 0 25 -4 28 -10
4 -7 -136 -10 -412 -10 l-418 0 -17 -30 c-13 -23 -24 -30 -48 -30 -18 0 -30 5
-28 10 5 15 430 511 434 507 2 -2 -1 -29 -7 -60z m2314 -304 c111 -116 139
-155 100 -138 -95 40 -115 42 -168 15 -51 -26 -164 -28 -202 -3 -16 11 -46 17
-78 17 -32 0 -62 -6 -78 -17 -24 -15 -64 -17 -444 -15 -230 1 -395 3 -368 5
421 28 724 114 858 246 62 60 82 108 72 173 l-6 44 98 -102 c54 -56 151 -158
216 -225z m-1333 -126 c0 -2 -20 -41 -45 -87 -25 -46 -53 -101 -63 -122 -17
-38 -18 -39 -57 -32 -22 3 -67 10 -100 14 l-60 7 76 2 76 1 32 68 c52 113 112
102 -537 102 -646 0 -579 10 -626 -94 -14 -32 -23 -62 -20 -67 3 -5 210 -10
472 -10 286 -1 443 -5 405 -10 -34 -4 -79 -12 -100 -18 -24 -7 -193 -11 -461
-11 l-423 0 62 118 c34 64 67 123 72 130 7 9 150 12 653 12 354 0 644 -1 644
-3z m1040 -26 c0 -13 -49 -23 -81 -16 -16 4 -27 11 -23 16 7 12 104 12 104 0z
m340 0 c0 -13 -46 -22 -75 -15 -42 10 -28 24 25 24 28 0 50 -4 50 -9z m-2750
-36 c0 -15 -52 -105 -60 -105 -6 0 -10 25 -10 55 l0 55 35 0 c19 0 35 -2 35
-5z m2260 -50 l0 -55 -435 0 c-246 0 -435 4 -435 9 0 5 7 22 15 37 8 16 15 37
15 47 0 16 27 17 420 17 l420 0 0 -55z m344 9 c3 -25 3 -50 0 -55 -3 -5 -39
-9 -80 -9 l-74 0 0 55 0 55 74 0 73 0 7 -46z m256 -10 l0 -55 -32 3 c-32 3
-33 4 -36 56 l-3 52 35 0 36 0 0 -56z m-1519 -62 c-38 -76 -61 -107 -61 -82 0
22 94 194 97 178 2 -9 -14 -52 -36 -96z m1077 34 c-3 -68 -4 -70 -33 -78 -16
-4 -43 -4 -60 0 -29 8 -30 10 -33 78 l-3 69 66 0 66 0 -3 -69z m342 -2 c0 -70
-1 -72 -27 -77 -16 -3 -44 -2 -63 2 -35 7 -35 7 -38 65 -2 32 -1 64 1 70 3 7
30 11 66 11 l61 0 0 -71z m-2846 -91 c-7 -16 -14 -49 -14 -75 l0 -48 385 0
385 0 0 -84 c0 -81 1 -85 29 -109 16 -13 60 -37 98 -53 66 -28 74 -29 233 -29
147 0 172 3 225 22 33 13 72 36 88 53 25 29 27 36 27 125 0 85 -2 97 -24 122
l-24 28 19 37 19 38 451 0 c377 0 450 -2 455 -14 16 -42 143 -47 175 -7 15 18
28 21 89 21 62 0 74 -3 90 -22 15 -19 28 -23 80 -23 52 0 65 4 80 23 15 18 28
22 77 22 l59 0 80 -107 c44 -60 213 -283 375 -498 298 -393 526 -702 548 -743
l12 -22 -2591 0 -2591 0 22 31 c24 34 305 370 594 709 105 123 210 249 235
280 256 320 282 350 305 350 23 0 23 -1 9 -27z m1275 -39 c74 -18 126 -46 142
-76 15 -29 -20 -62 -96 -90 -53 -20 -79 -22 -215 -22 -136 0 -162 2 -215 22
-73 27 -115 64 -99 89 20 32 61 55 130 73 90 24 262 26 353 4z m-489 -22 c0
-30 -29 -32 -397 -32 -366 0 -373 0 -373 20 0 20 7 20 385 20 212 0 385 -4
385 -8z m640 -170 c0 -47 -20 -77 -68 -101 -105 -54 -343 -56 -467 -4 -74 31
-105 60 -105 99 0 18 3 34 7 34 3 0 36 -12 72 -27 59 -24 82 -27 212 -31 156
-4 242 9 304 48 42 26 45 25 45 -18z m2594 -1164 c-16 -51 -181 -296 -242
-361 l-36 -37 -2327 0 -2327 0 -34 43 c-63 76 -228 346 -228 372 0 3 1170 5
2601 5 l2600 0 -7 -22z"/>
<path d="M3890 6177 c3 -3 64 -20 135 -37 208 -50 364 -99 449 -142 50 -24 83
-35 89 -29 21 21 -15 42 -153 86 -72 23 -305 81 -420 105 -30 6 -66 13 -80 17
-14 3 -23 3 -20 0z"/>
<path d="M2821 5711 c-11 -7 -11 -20 2 -82 30 -138 44 -280 81 -809 2 -30 2
55 0 190 -2 147 -12 321 -24 435 -30 291 -29 285 -59 266z"/>
<path d="M4161 5697 c-31 -39 -57 -139 -90 -357 -30 -193 -82 -753 -101 -1080
-6 -96 -15 -242 -20 -324 -6 -82 -9 -151 -7 -153 5 -4 23 132 37 282 5 55 19
186 30 290 11 105 27 258 35 340 72 738 96 903 136 958 29 39 10 80 -20 44z"/>
<path d="M2980 5534 c0 -21 4 -25 17 -20 10 4 64 12 120 19 58 6 97 14 90 19
-6 4 -60 8 -119 8 l-108 0 0 -26z"/>
<path d="M2990 5093 l0 -24 93 7 c94 7 127 14 66 14 -19 0 -62 6 -96 14 l-63
13 0 -24z"/>
<path d="M4210 5071 c0 -25 17 -26 80 -7 42 14 43 15 14 15 -17 1 -46 4 -63 7
-27 6 -31 4 -31 -15z"/>
<path d="M2914 4440 c0 -135 2 -190 3 -122 2 67 2 177 0 245 -1 67 -3 12 -3
-123z"/>
<path d="M4223 4623 c-35 -4 -38 -9 -24 -31 7 -12 14 -11 39 2 17 9 48 20 69
25 l38 9 -45 -1 c-25 0 -60 -2 -77 -4z"/>
<path d="M2994 4355 c-4 -9 -4 -18 -1 -21 5 -6 213 -44 232 -43 8 0 -131 50
-207 75 -11 3 -20 -1 -24 -11z"/>
<path d="M2923 4005 c0 -22 2 -30 4 -17 2 12 2 30 0 40 -3 9 -5 -1 -4 -23z"/>
<path d="M3013 3785 c-3 -9 -4 -18 -1 -20 3 -4 187 -45 198 -45 5 1 -180 80
-187 80 -2 0 -6 -7 -10 -15z"/>
<path d="M1985 4905 c5 -405 52 -666 142 -784 27 -34 82 -64 143 -76 26 -5 17
2 -37 29 -58 28 -76 42 -91 73 -57 113 -104 370 -133 718 -23 289 -28 296 -24
40z"/>
<path d="M3620 2130 l0 -40 80 0 c78 0 80 1 80 24 0 51 -7 56 -86 56 l-74 0 0
-40z"/>
<path d="M3995 2160 c-4 -6 -4 -24 0 -40 l7 -30 78 0 c45 0 82 5 85 11 4 5 1
23 -5 40 -12 28 -14 29 -86 29 -40 0 -76 -5 -79 -10z"/>
<path d="M4354 2157 c-3 -8 0 -26 5 -40 10 -26 13 -27 85 -27 41 0 78 4 81 10
3 5 -1 23 -10 40 -15 29 -18 30 -86 30 -49 0 -71 -4 -75 -13z"/>
<path d="M4735 2159 c-4 -5 -1 -23 5 -40 12 -28 14 -29 86 -29 64 0 74 2 74
18 0 10 -7 28 -16 40 -13 19 -24 22 -79 22 -35 0 -67 -5 -70 -11z"/>
<path d="M3634 2056 c-3 -8 -4 -27 -2 -43 3 -28 4 -28 81 -31 l77 -3 0 30 c0
46 -23 61 -91 61 -42 0 -61 -4 -65 -14z"/>
<path d="M4033 2059 c-6 -6 -7 -24 -4 -42 l7 -32 79 0 80 0 -2 28 c-3 47 -19
57 -87 57 -34 0 -67 -5 -73 -11z"/>
<path d="M4394 2055 c-4 -9 -1 -29 6 -45 12 -29 14 -30 86 -30 l74 0 0 28 c0
45 -27 62 -99 62 -46 0 -63 -4 -67 -15z"/>
<path d="M4794 2055 c-3 -8 -2 -27 3 -42 9 -27 12 -28 84 -28 85 0 97 13 55
58 -21 23 -33 27 -81 27 -40 0 -57 -4 -61 -15z"/>
<path d="M2052 2048 c-7 -7 -12 -18 -12 -25 0 -7 -20 -50 -45 -95 -25 -45 -44
-89 -43 -97 3 -14 34 -16 232 -19 162 -2 233 1 242 9 17 14 104 179 104 197 0
7 -15 12 -42 12 -24 0 -52 7 -62 15 -11 8 -36 15 -56 15 -20 0 -45 -7 -56 -15
-12 -9 -42 -14 -79 -14 -37 0 -67 5 -79 14 -24 18 -87 20 -104 3z m248 -88 c0
-66 42 -94 104 -70 23 8 26 15 26 60 0 49 1 50 29 50 l29 0 -38 -72 -38 -73
-211 -3 -211 -2 17 35 c18 38 28 43 36 21 8 -20 70 -31 96 -17 16 9 21 21 21
55 0 23 3 46 7 49 3 4 35 7 70 7 l63 0 0 -40z m100 -6 c0 -31 -3 -34 -30 -34
-28 0 -30 2 -30 38 0 37 1 38 30 34 27 -4 30 -8 30 -38z m-268 1 c-4 -31 -8
-35 -33 -35 -26 0 -29 3 -29 35 0 33 2 35 33 35 32 0 33 -1 29 -35z"/>
<path d="M3553 1788 c4 -95 7 -280 7 -410 l0 -237 223 -3 c122 -2 230 -1 240
1 10 2 17 12 17 25 0 29 -36 211 -45 225 -3 7 -9 35 -11 64 -3 29 -12 77 -20
107 -9 30 -20 82 -24 115 -5 33 -16 83 -24 110 -9 28 -16 61 -16 75 0 14 -5
42 -11 63 l-10 37 -166 0 -166 0 6 -172z m307 128 c0 -8 3 -21 6 -30 5 -14
-11 -16 -140 -16 l-146 0 0 30 0 30 140 0 c114 0 140 -3 140 -14z m-147 -83
c-24 -2 -62 -2 -85 0 -24 2 -5 4 42 4 47 0 66 -2 43 -4z m181 -84 c14 -73 23
-69 -148 -69 l-154 0 -4 50 -3 50 151 0 152 0 6 -31z m-66 -106 c-43 -2 -113
-2 -155 0 -43 1 -8 3 77 3 85 0 120 -2 78 -3z m-48 -63 l148 0 7 -42 c3 -24 9
-51 11 -60 5 -17 -8 -18 -175 -18 l-181 0 0 58 c0 62 6 76 28 67 7 -3 80 -5
162 -5z m82 -157 c-51 -2 -132 -2 -180 0 -48 1 -6 3 93 3 99 0 138 -2 87 -3z
m124 -128 c7 -33 13 -66 13 -72 1 -10 -46 -13 -204 -13 l-205 0 0 75 0 75 192
-2 191 -3 13 -60z m14 -125 c0 -6 -71 -10 -194 -10 -119 0 -197 4 -201 10 -4
7 63 10 194 10 127 0 201 -4 201 -10z"/>
<path d="M3950 1933 c0 -16 6 -59 14 -98 33 -158 56 -274 67 -345 6 -41 14
-84 19 -95 4 -11 15 -69 24 -129 9 -59 19 -112 22 -117 3 -5 111 -9 240 -9
l234 0 0 33 c0 40 -54 194 -76 218 -9 10 -14 24 -11 31 5 16 -50 178 -69 199
-8 9 -11 18 -8 22 8 8 -46 167 -57 167 -5 0 -9 10 -9 23 0 12 -8 45 -18 72
l-18 50 -177 3 -177 2 0 -27z m339 -33 l10 -30 -148 0 c-127 0 -150 2 -155 16
-16 43 -13 44 138 44 l144 0 11 -30z m-66 -67 c-40 -2 -106 -2 -145 0 -40 1
-8 3 72 3 80 0 112 -2 73 -3z m122 -89 c27 -66 31 -64 -144 -64 -88 0 -162 4
-165 8 -3 5 -8 28 -12 50 l-7 42 157 0 156 0 15 -36z m-52 -101 c-46 -2 -120
-2 -165 0 -46 1 -9 3 82 3 91 0 128 -2 83 -3z m106 -67 c8 -10 40 -98 41 -113
0 -2 -81 -3 -179 -3 -200 0 -186 -6 -197 80 l-7 50 165 0 c127 0 168 -3 177
-14z m-36 -153 c-51 -2 -135 -2 -185 0 -51 1 -10 3 92 3 102 0 143 -2 93 -3z
m143 -133 c13 -36 24 -68 24 -72 0 -5 -92 -8 -204 -8 l-204 0 -5 33 c-3 17 -9
51 -12 75 l-7 42 192 -2 192 -3 24 -65z m24 -117 c0 -5 -87 -8 -194 -8 -107 0
-198 3 -202 8 -4 4 83 7 194 7 111 0 202 -3 202 -7z"/>
<path d="M4344 1945 c-6 -14 18 -98 41 -145 7 -14 23 -58 36 -99 12 -40 29
-79 36 -87 7 -7 13 -22 13 -34 0 -32 51 -173 67 -186 7 -6 13 -24 14 -40 0
-16 15 -69 33 -119 l33 -90 236 -3 236 -2 3 27 4 28 13 -27 c7 -14 23 -28 35
-30 11 -1 119 -2 239 0 l217 3 0 28 c0 39 -127 215 -158 219 -16 3 -22 10 -22
30 -1 37 -123 202 -150 202 -15 0 -20 7 -20 28 0 33 -87 152 -119 164 -12 4
-21 16 -21 28 0 11 -16 43 -36 70 l-36 51 -152 -3 c-146 -3 -151 -4 -154 -25
-4 -24 43 -124 64 -136 8 -4 14 -17 14 -28 0 -29 71 -159 87 -159 7 0 13 -10
13 -22 0 -33 88 -198 106 -198 9 0 14 -10 14 -28 0 -15 9 -45 21 -66 11 -21
19 -40 17 -42 -2 -2 -21 28 -42 66 -20 39 -43 70 -50 70 -8 0 -16 17 -20 38
-8 47 -92 192 -111 192 -10 0 -15 10 -15 30 0 16 -13 52 -30 80 -16 28 -30 55
-30 60 0 5 -9 14 -20 20 -11 6 -20 20 -20 30 0 11 -12 43 -27 70 l-27 50 -163
0 c-134 0 -165 -3 -169 -15z m324 -40 c7 -14 12 -28 12 -30 0 -3 -61 -5 -135
-5 -123 0 -135 2 -145 19 -20 39 -14 41 123 41 134 0 134 0 145 -25z m372 -5
l21 -30 -125 0 -125 0 -16 30 -16 30 120 0 120 0 21 -30z m-517 -67 c-18 -2
-48 -2 -65 0 -18 2 -4 4 32 4 36 0 50 -2 33 -4z m500 0 c-34 -2 -93 -2 -130 0
-37 2 -9 3 62 3 72 0 102 -1 68 -3z m-261 -103 l27 -50 -158 0 -157 0 -16 50
-16 50 147 0 146 0 27 -50z m406 -2 l34 -48 -149 0 -149 0 -22 45 c-12 25 -22
48 -22 51 0 2 62 3 137 2 l137 -3 34 -47z m-450 -85 c-43 -2 -113 -2 -155 0
-43 1 -8 3 77 3 85 0 120 -2 78 -3z m430 0 c-43 -2 -113 -2 -155 0 -43 1 -8 3
77 3 85 0 120 -2 78 -3z m-303 -69 c18 -18 55 -88 55 -104 0 -16 -335 -14
-347 3 -14 17 -41 105 -35 112 3 3 74 5 158 5 127 0 155 -3 169 -16z m-17
-151 c-49 -2 -127 -2 -175 0 -49 1 -9 3 87 3 96 0 136 -2 88 -3z m464 0 c-51
-2 -132 -2 -180 0 -48 1 -6 3 93 3 99 0 138 -2 87 -3z m202 -138 l57 -75 -202
2 -202 3 -33 65 c-18 36 -33 68 -34 73 0 4 80 7 179 7 l179 0 56 -75z m-439
-115 c-4 -6 -82 -10 -200 -10 -118 0 -196 4 -200 10 -4 7 65 10 200 10 135 0
204 -3 200 -10z m505 3 c0 -5 -90 -8 -200 -8 -110 0 -200 3 -200 8 0 4 90 7
200 7 110 0 200 -3 200 -7z"/>
<path d="M2792 1803 c-25 -48 -74 -204 -69 -218 6 -13 43 -15 286 -15 l279 0
21 89 c12 49 21 105 21 125 l0 36 -265 0 c-242 0 -265 -2 -273 -17z m373 -28
c-40 -19 -200 -19 -240 0 -27 12 -15 13 120 13 135 0 147 -1 120 -13z m-288
-17 c27 -13 49 -23 51 -24 1 -1 -1 -11 -6 -24 -6 -17 -27 -29 -77 -46 -38 -13
-71 -21 -73 -19 -6 6 42 135 50 135 4 0 29 -10 55 -22z m413 15 c0 -10 -32
-137 -35 -141 -7 -8 -125 51 -125 62 0 25 22 42 82 63 71 24 78 26 78 16z
m-190 -63 c0 -18 -7 -20 -75 -20 -41 0 -75 4 -75 8 0 21 29 32 87 32 56 0 63
-2 63 -20z m35 -65 c27 -12 14 -13 -125 -13 -141 0 -152 1 -120 13 47 18 206
18 245 0z"/>
<path d="M2098 1683 c-21 -5 -68 -76 -68 -103 0 -19 6 -20 115 -20 l114 0 15
28 c13 25 20 62 17 87 -1 10 -158 16 -193 8z m152 -37 c0 -30 -16 -36 -91 -36
-77 0 -79 1 -69 20 9 17 21 20 85 20 41 0 75 -2 75 -4z"/>
<path d="M2424 1683 c-24 -5 -71 -94 -60 -112 5 -7 49 -11 121 -11 l114 0 15
50 c23 76 18 80 -83 79 -47 -1 -95 -4 -107 -6z m154 -50 c-3 -15 -16 -18 -86
-21 -45 -2 -82 -1 -82 2 0 30 15 36 92 36 70 0 79 -2 76 -17z"/>
<path d="M1648 1485 l-82 -125 -120 0 -120 0 -43 -42 c-24 -23 -43 -50 -43
-61 0 -10 18 -45 40 -78 38 -55 43 -59 79 -59 25 0 41 -5 45 -15 7 -20 70 -20
86 0 9 11 40 15 122 17 86 2 113 6 119 18 4 8 16 38 27 65 l21 50 -29 50 c-22
39 -36 51 -59 55 l-30 5 74 114 c41 63 72 118 69 123 -3 4 -21 8 -40 8 -32 0
-37 -5 -116 -125z m81 48 c-55 -91 -110 -173 -116 -173 -3 0 1 10 9 23 8 12
38 59 67 105 52 81 84 117 40 45z m-69 -220 c3 -2 -6 -13 -19 -24 -21 -17 -40
-19 -182 -19 -91 0 -159 4 -159 9 0 5 10 18 23 28 21 16 40 18 178 15 85 -2
156 -6 159 -9z m80 -60 c0 -8 -7 -28 -16 -44 -18 -35 -33 -29 -54 22 -12 27
-10 32 11 55 l24 25 17 -21 c10 -12 18 -29 18 -37z m-92 -49 c12 -20 22 -40
22 -45 0 -5 -69 -9 -164 -9 l-164 0 -26 34 c-14 19 -26 39 -26 45 0 7 55 11
168 11 l167 -1 23 -35z"/>
<path d="M2002 1417 c-18 -29 -32 -61 -32 -70 0 -9 -6 -17 -14 -17 -20 0 -48
-65 -49 -119 l-2 -46 308 -2 308 -3 8 22 8 22 5 -22 c6 -21 11 -22 151 -22 88
0 148 4 152 10 6 10 18 98 32 238 l6 62 -136 0 c-115 0 -137 -3 -145 -16 -8
-15 -10 -15 -15 0 -9 23 -265 24 -273 1 -4 -8 -10 -15 -15 -15 -5 0 -9 7 -9
15 0 13 -21 15 -128 15 l-128 0 -32 -53z m248 18 c0 -4 -7 -19 -15 -35 l-16
-30 -99 0 c-55 0 -100 3 -100 6 0 3 8 19 17 35 17 29 18 29 115 29 54 0 98 -2
98 -5z m290 -4 c0 -5 -4 -21 -10 -35 -9 -26 -11 -26 -115 -26 -58 0 -105 2
-105 5 0 4 7 19 15 35 l16 30 99 0 c55 0 100 -4 100 -9z m298 -23 l-3 -33 -99
-3 c-124 -3 -128 -2 -115 38 l11 30 105 0 104 0 -3 -32z m-278 -95 c0 -5 -5
-15 -10 -23 -8 -12 -10 -11 -10 8 0 12 5 22 10 22 6 0 10 -3 10 -7z m-374 -35
c-3 -13 -6 -31 -6 -40 0 -16 -12 -18 -120 -18 -66 0 -120 4 -120 9 0 4 5 22
11 40 l11 31 115 0 c115 0 115 0 109 -22z m312 -15 l-3 -38 -123 -3 -124 -3 7
23 c4 13 9 31 11 41 5 15 19 17 120 17 l115 0 -3 -37z m322 -3 l0 -40 -120 0
-120 0 0 33 c0 19 3 37 7 40 3 4 57 7 120 7 l113 0 0 -40z"/>
<path d="M2915 1458 c-12 -37 -35 -181 -37 -233 l-3 -60 149 -3 c86 -1 152 1
155 7 3 5 6 74 6 153 l0 143 -133 3 c-101 2 -133 0 -137 -10z m235 -53 l0 -35
-111 0 c-111 0 -111 0 -105 23 3 12 6 28 6 35 0 9 28 12 105 12 l105 0 0 -35z
m0 -145 l0 -40 -120 0 -120 0 0 33 c0 19 3 37 7 40 3 4 57 7 120 7 l113 0 0
-40z"/>
<path d="M1247 749 c-45 -33 -67 -55 -63 -65 3 -8 33 -55 67 -104 l62 -90
2063 0 2064 0 67 101 67 101 -31 27 c-17 14 -48 38 -69 54 l-37 27 -2061 0
-2061 -1 -68 -50z m4213 -9 l35 -29 -2117 -1 c-1165 0 -2118 2 -2118 5 0 2 17
16 37 30 l38 25 2045 0 2045 -1 35 -29z m9 -145 l-51 -75 -2042 0 -2042 0 -52
75 -52 75 2146 0 2145 0 -52 -75z"/>
</g>
</svg>
